<?xml version="1.0" standalone="no"?>
<!DOCTYPE svg PUBLIC "-//W3C//DTD SVG 1.1//EN" "http://www.w3.org/Graphics/SVG/1.1/DTD/svg11.dtd">
<svg xmlns="http://www.w3.org/2000/svg" width="294" height="42" viewBox="0 0 294 42" fill="none">
<path d="M159.319 3.63728H140.537V0.73877H185.252V3.63728H166.469V41.0906H159.319V3.63728Z" fill="black"/>
<path d="M193.182 0.73877H215.823C227.342 0.73877 234.265 4.54662 234.265 11.1393C234.265 17.5615 228.534 21.6535 218.774 22.3355C224.221 25.2909 230.577 39.8403 239.032 39.0446L238.521 41.3748C224.846 42.7956 216.334 23.8132 209.241 22.4492H200.331V41.0906H193.182V0.73877ZM200.331 19.4938H212.816C221.725 19.4938 226.888 17.1068 226.888 11.1393C226.888 5.68329 221.838 3.63728 212.986 3.63728H200.331V19.4938Z" fill="black"/>
<path d="M286.339 41.0906L278.735 28.9282H254.391L247.015 41.0906H243.61L252.576 26.0297L267.556 0.73877H269.656L294 41.0906H286.339ZM256.094 26.0297H276.92L266.365 9.0933L256.094 26.0297Z" fill="black"/>
<path d="M117.372 42C109.144 42 100.348 38.7605 97 35.3505L99.4968 31.77C101.823 35.2936 109.2 39.0447 117.428 39.0447C126.905 39.0447 131.445 35.7483 131.445 31.2585C131.445 27.3938 128.267 25.1773 117.826 23.8133C104.774 22.1083 97.9079 17.1069 97.9079 10.6279C97.9079 4.54669 104.774 0 116.804 0C123.67 0 133.034 3.06901 135.701 5.68336L133.601 9.6617C131.615 6.82003 123.5 3.01218 116.804 3.01218C107.441 3.01218 104.547 6.82003 104.547 9.37754C104.547 12.9581 108.633 16.1976 117.826 17.1637C132.636 18.7551 138.708 23.0176 138.708 30.1786C138.708 36.4303 129.629 42 117.372 42Z" fill="black"/>
<path d="M25.107 42C10.7683 42 0 33.1308 0 21.3433C0 9.15532 10.7683 0 25.107 0C32.2481 0 40.806 2.28883 45 6.29428L43.6398 10.0708C38.4257 5.32153 31.5113 3.08992 25.107 3.08992C15.2456 3.08992 7.82116 10.5858 7.82116 21.3433C7.82116 31.7003 15.2456 38.9101 25.107 38.9101C32.5315 38.9101 39.3892 36.7357 43.5831 31.8719L45 35.7057C40.466 39.7112 31.9081 42 25.107 42Z" fill="black"/>
<g clip-path="url(#clip0_44_145)">
<path d="M73.0817 0.156047C71.727 0.136534 70.5945 0.288923 69.1353 0.478481C68.8851 0.511312 68.3812 0.621888 67.6238 0.810207L67.1346 0.878967L67.4193 0.799057C67.4218 0.798555 67.4242 0.797315 67.426 0.795495C67.4278 0.793676 67.4291 0.791358 67.4296 0.788834C67.4321 0.777064 67.4339 0.769013 67.4352 0.764677C67.4392 0.751719 67.4463 0.73985 67.4559 0.730013C67.4654 0.720176 67.4772 0.712638 67.4903 0.707994C67.5562 0.683835 67.6256 0.6318 67.6985 0.551888C67.7013 0.548932 67.703 0.545137 67.7035 0.541084C67.7039 0.537032 67.703 0.532947 67.7009 0.529461C67.6988 0.525975 67.6956 0.523281 67.6917 0.521793C67.6879 0.520305 67.6837 0.520103 67.6798 0.521223C67.6325 0.533613 67.5871 0.519676 67.5435 0.479411C67.5297 0.466756 67.5129 0.457614 67.4947 0.452761C67.4765 0.447908 67.4574 0.447486 67.4389 0.451533L64.6754 1.04065C67.4078 0.169058 70.2099 -0.125812 73.0817 0.156047Z" fill="url(#paint0_linear_44_145)"/>
<path d="M73.0817 0.156047C73.8889 0.22295 74.5275 0.302242 74.9974 0.393923C76.9773 0.778613 78.8567 1.44888 80.6355 2.40472C81.8181 3.04092 82.9166 3.76755 83.9311 4.58463C84.0749 4.69985 84.2476 4.85039 84.4493 5.03623C84.4533 5.03992 84.4557 5.04516 84.4559 5.05086C84.456 5.05657 84.454 5.0623 84.4502 5.06689C84.4485 5.06896 84.4464 5.07069 84.444 5.07195C84.4416 5.07321 84.439 5.074 84.4363 5.07426C84.4336 5.07451 84.4309 5.07424 84.4284 5.07346C84.4258 5.07267 84.4234 5.07139 84.4213 5.06968C84.0099 4.75003 83.6806 4.51247 83.4335 4.35698C81.3354 3.03565 79.1728 2.10738 76.9459 1.57216C74.4158 0.963217 71.8278 0.897243 69.182 1.37423C68.7351 1.32468 68.2894 1.37361 67.845 1.52105C68.2845 1.37176 68.731 1.28039 69.1848 1.24693C69.1887 1.24665 69.1924 1.24522 69.1954 1.24283C69.1985 1.24043 69.2008 1.23718 69.202 1.23349C69.2032 1.2298 69.2033 1.22584 69.2022 1.22211C69.2011 1.21838 69.199 1.21505 69.196 1.21255C69.0043 1.05459 68.8751 0.945871 68.8085 0.886402C68.548 0.653172 68.0075 0.749809 67.6238 0.810207C68.3812 0.621888 68.8851 0.511312 69.1353 0.478481C70.5945 0.288923 71.727 0.136534 73.0817 0.156047Z" fill="url(#paint1_linear_44_145)"/>
<path d="M67.1346 0.878967C66.566 1.03321 66.0301 1.26366 65.4531 1.3445C65.4234 1.34882 65.3945 1.35694 65.3672 1.36866L64.5774 1.71153C64.5771 1.71153 64.5768 1.71161 64.5765 1.71177C64.5761 1.71193 64.5758 1.71217 64.5755 1.71246C64.3384 1.75242 64.0947 1.92339 63.8791 2.01538C63.35 2.23963 62.9884 2.40596 62.7942 2.51437C62.2291 2.83029 61.5933 3.22552 60.8868 3.70003C60.2414 4.13366 59.6539 4.59547 59.1242 5.08547C57.8237 6.29065 56.765 7.37596 55.8538 8.72609C54.3805 10.9079 53.338 13.2817 52.7262 15.8475C51.9942 18.9157 52.1125 21.9716 53.0809 25.015C53.3318 25.8036 53.7771 26.6904 54.4169 27.6753C53.8991 28.135 53.3427 28.5342 52.7476 28.8731C52.736 28.8796 52.7224 28.882 52.7093 28.8798C52.6962 28.8776 52.6843 28.871 52.6757 28.861C52.5183 28.6795 52.3751 28.4596 52.2463 28.2013C51.9506 27.6097 51.584 26.9645 51.1465 26.2657C50.8284 25.4524 50.6025 24.7573 50.4687 24.1806C50.0019 22.1704 49.9204 20.0806 50.2241 17.9113C50.3318 17.7353 50.408 17.5461 50.4528 17.3435C50.6433 16.4905 50.8876 15.5548 51.1857 14.5364C51.3556 13.956 51.543 13.4477 51.7477 13.0116C52.0272 12.4175 52.274 11.934 52.4881 11.5611C52.7781 11.055 52.9736 10.7106 53.0744 10.5278C53.4553 9.83525 53.849 9.14299 54.2554 8.45105C55.5002 6.80698 56.9486 5.35339 58.6004 4.09029C59.0551 3.74277 59.5004 3.47516 59.9691 3.18711C61.4069 2.30158 63.0229 1.49875 64.6754 1.04065L67.4389 0.451533C67.4574 0.447486 67.4765 0.447908 67.4947 0.452761C67.5129 0.457614 67.5297 0.466756 67.5435 0.479411C67.5871 0.519676 67.6325 0.533613 67.6798 0.521223C67.6837 0.520103 67.6879 0.520305 67.6917 0.521793C67.6956 0.523281 67.6988 0.525975 67.7009 0.529461C67.703 0.532947 67.7039 0.537032 67.7035 0.541084C67.703 0.545137 67.7013 0.548932 67.6985 0.551888C67.6256 0.6318 67.5562 0.683835 67.4903 0.707994C67.4772 0.712638 67.4654 0.720176 67.4559 0.730013C67.4463 0.73985 67.4392 0.751719 67.4352 0.764677C67.4339 0.769013 67.4321 0.777064 67.4296 0.788834C67.4291 0.791358 67.4278 0.793676 67.426 0.795495C67.4242 0.797315 67.4218 0.798555 67.4193 0.799057L67.1346 0.878967Z" fill="url(#paint2_linear_44_145)"/>
<path d="M69.182 1.37423C66.3727 1.88344 63.7605 3.13229 61.4937 4.84295C58.4184 7.1641 56.2477 10.1524 54.9818 13.8079C54.5411 15.0803 54.2507 16.3394 54.1107 17.5851C53.7727 20.5874 54.4188 23.7495 56.0862 26.3317C56.2505 26.5872 56.4653 26.8223 56.6511 27.0872C56.7089 27.1695 56.7874 27.2662 56.8863 27.3771C57.3388 27.8844 57.8296 28.3521 58.3586 28.7802C57.5641 28.9121 57.1879 29.6285 56.8639 30.279C55.9048 29.5393 55.0891 28.6714 54.4169 27.6753C53.7771 26.6904 53.3318 25.8036 53.0809 25.015C52.1125 21.9716 51.9942 18.9157 52.7262 15.8475C53.338 13.2817 54.3805 10.9079 55.8538 8.72609C56.765 7.37596 57.8237 6.29065 59.1242 5.08547C59.6539 4.59547 60.2414 4.13366 60.8868 3.70003C61.5933 3.22552 62.2291 2.83029 62.7942 2.51437C62.9884 2.40596 63.35 2.23963 63.8791 2.01538C64.0947 1.92339 64.3384 1.75242 64.5755 1.71246C64.5758 1.71217 64.5761 1.71193 64.5765 1.71177C64.5768 1.71161 64.5771 1.71153 64.5774 1.71153L65.3672 1.36866C65.3945 1.35694 65.4234 1.34882 65.4531 1.3445C66.0301 1.26366 66.566 1.03321 67.1346 0.878967L67.6238 0.810207C68.0075 0.749809 68.548 0.653172 68.8085 0.886402C68.8751 0.945871 69.0043 1.05459 69.196 1.21255C69.199 1.21505 69.2011 1.21838 69.2022 1.22211C69.2033 1.22584 69.2032 1.2298 69.202 1.23349C69.2008 1.23718 69.1985 1.24043 69.1954 1.24283C69.1924 1.24522 69.1887 1.24665 69.1848 1.24693C68.731 1.28039 68.2845 1.37176 67.845 1.52105C68.2894 1.37361 68.7351 1.32468 69.182 1.37423Z" fill="url(#paint3_linear_44_145)"/>
<path d="M54.2554 8.45105C53.849 9.14299 53.4553 9.83525 53.0744 10.5278C52.9736 10.7106 52.7781 11.055 52.4881 11.5611C52.274 11.934 52.0272 12.4175 51.7477 13.0116C51.543 13.4477 51.3556 13.956 51.1857 14.5364C50.8876 15.5548 50.6433 16.4905 50.4528 17.3435C50.408 17.5461 50.3318 17.7353 50.2241 17.9113C50.661 14.4695 52.1165 11.1848 54.2554 8.45105Z" fill="url(#paint4_linear_44_145)"/>
<path d="M79.1604 27.759C79.4262 26.1892 79.611 24.6111 79.715 23.0247C79.7162 23.01 79.721 22.996 79.729 22.9838L79.8671 22.7691C79.8691 22.7657 79.87 22.7617 79.8695 22.7578C79.8691 22.7538 79.8673 22.7501 79.8646 22.7472C79.8619 22.7443 79.8583 22.7424 79.8544 22.7416C79.8505 22.7409 79.8465 22.7414 79.8429 22.7431L79.5955 22.8862C80.2023 21.9403 80.7357 20.9529 81.1957 19.9239C81.7378 18.7122 82.1112 17.4126 82.316 16.025C82.504 14.7445 82.5068 13.5762 82.3244 12.52C82.2466 12.0709 82.0745 11.4722 81.8081 10.7239C81.7546 10.5721 81.7004 10.4501 81.6457 10.3578C81.5532 10.1998 81.5318 10.0586 81.4281 9.86901C81.3541 9.73335 81.2732 9.59211 81.1854 9.4453C81.1821 9.43943 81.1812 9.43255 81.1827 9.42602C81.1843 9.41949 81.1882 9.41377 81.1938 9.40999L81.1975 9.4072C81.2035 9.40315 81.2108 9.40156 81.218 9.40278C81.2251 9.40399 81.2315 9.40791 81.2358 9.4137C81.4499 9.70052 81.6307 9.99291 81.7782 10.2909C81.7907 10.315 81.8056 10.3302 81.823 10.3364C81.8318 10.3397 81.8392 10.3457 81.8441 10.3536C81.849 10.3615 81.8511 10.3708 81.8501 10.3801C81.838 10.4879 81.9239 10.552 81.9668 10.6486C82.5662 11.995 82.9191 13.386 83.1581 14.8235C83.4317 16.471 83.3019 18.1166 83.0237 19.7678C82.8183 20.9869 82.4626 22.1658 81.9566 23.3044C81.2806 24.8239 80.3486 26.3088 79.1604 27.759Z" fill="url(#paint5_linear_44_145)"/>
<path d="M79.1604 27.759L78.2193 28.7904C78.1509 27.5192 78.1533 26.2518 78.2268 24.9881C78.2274 24.9734 78.2312 24.9594 78.238 24.9472L78.5601 24.3209L79.5955 22.8862L79.8429 22.7431C79.8465 22.7414 79.8505 22.7409 79.8544 22.7416C79.8583 22.7424 79.8619 22.7443 79.8646 22.7472C79.8673 22.7501 79.8691 22.7538 79.8695 22.7578C79.87 22.7617 79.8691 22.7657 79.8671 22.7691L79.729 22.9838C79.721 22.996 79.7162 23.01 79.715 23.0247C79.611 24.6111 79.4262 26.1892 79.1604 27.759Z" fill="url(#paint6_linear_44_145)"/>
<path d="M78.5601 24.3209L78.238 24.9472C78.2312 24.9594 78.2274 24.9734 78.2268 24.9881C78.1533 26.2518 78.1509 27.5192 78.2193 28.7904C76.6309 30.4592 74.8014 31.818 72.7306 32.8668C73.2329 31.5257 73.527 30.1483 73.6129 28.7346C74.3791 28.2353 75.0173 27.7844 75.5277 27.3817C76.6232 26.5175 77.6339 25.4973 78.5601 24.3209Z" fill="url(#paint7_linear_44_145)"/>
<path d="M54.4169 27.6753C55.0891 28.6714 55.9048 29.5393 56.8639 30.279C57.8579 31.083 58.9617 31.7075 60.1754 32.1522C60.6983 32.3437 61.2298 32.4778 61.77 32.5546C61.8012 32.5594 61.829 32.5761 61.8475 32.601C62.0654 32.904 62.183 33.1028 62.2004 33.1976C62.3078 33.7746 61.8036 34.176 61.4209 34.4938C61.41 34.5029 61.3972 34.5094 61.3834 34.5131C61.3695 34.5168 61.3549 34.5175 61.3406 34.5152L60.2856 34.3414C60.2834 34.341 60.2811 34.3411 60.2788 34.3416C60.2766 34.3421 60.2746 34.343 60.2728 34.3444C60.271 34.3457 60.2696 34.3474 60.2686 34.3493C60.2676 34.3512 60.267 34.3532 60.2669 34.3554V34.3563C60.2665 34.3583 60.2665 34.3603 60.2669 34.3622C60.2673 34.3642 60.2681 34.3661 60.2692 34.3677C60.2704 34.3694 60.2718 34.3708 60.2735 34.3718C60.2752 34.3729 60.2771 34.3736 60.2791 34.374C60.8887 34.4864 61.4293 34.6574 62.0539 34.728C63.1157 34.8482 64.1486 34.8918 65.1525 34.859C65.7201 34.8404 66.1023 34.8067 66.299 34.7577C66.744 34.6481 67.1775 34.5573 67.5995 34.4855C68.7217 34.2931 69.7533 33.993 70.7486 33.6232C71.0221 33.5219 71.3414 33.442 71.6383 33.3639L70.1651 33.9493C70.1614 33.9509 70.1583 33.9531 70.1563 33.9556C70.1543 33.9582 70.1534 33.9609 70.1539 33.9633C70.1545 33.9657 70.1548 33.9676 70.1548 33.9688C70.1545 33.97 70.1537 33.9711 70.1525 33.9721C70.1514 33.9731 70.1499 33.9739 70.1483 33.9744C68.9352 34.3665 67.6415 34.6546 66.2672 34.8386C64.6701 35.0523 63.0678 35.0238 61.4601 34.7531C58.3456 34.229 55.5867 32.7153 53.5347 30.3189C52.5133 29.1264 51.7172 27.7754 51.1465 26.2657C51.584 26.9645 51.9506 27.6097 52.2463 28.2013C52.3751 28.4596 52.5183 28.6795 52.6757 28.861C52.6843 28.871 52.6962 28.8776 52.7093 28.8798C52.7224 28.882 52.736 28.8796 52.7476 28.8731C53.3427 28.5342 53.8991 28.135 54.4169 27.6753Z" fill="url(#paint8_linear_44_145)"/>
<path d="M58.3586 28.7802C61.0717 30.7798 64.1215 31.5287 67.508 31.027C68.731 30.8455 69.8825 30.5314 70.9624 30.0848C71.8356 29.723 72.7191 29.2729 73.6129 28.7346C73.527 30.1483 73.2329 31.5257 72.7306 32.8668L71.6383 33.3639C71.3414 33.442 71.0221 33.5219 70.7486 33.6232C69.7533 33.993 68.7217 34.2931 67.5995 34.4855C67.1775 34.5573 66.744 34.6481 66.299 34.7577C66.1023 34.8067 65.7201 34.8404 65.1525 34.859C64.1486 34.8918 63.1157 34.8482 62.0539 34.728C61.4293 34.6574 60.8887 34.4864 60.2791 34.374C60.2771 34.3736 60.2752 34.3729 60.2735 34.3718C60.2718 34.3708 60.2704 34.3694 60.2692 34.3677C60.2681 34.3661 60.2673 34.3642 60.2669 34.3622C60.2665 34.3603 60.2665 34.3583 60.2669 34.3563V34.3554C60.267 34.3532 60.2676 34.3512 60.2686 34.3493C60.2696 34.3474 60.271 34.3457 60.2728 34.3444C60.2746 34.343 60.2766 34.3421 60.2788 34.3416C60.2811 34.3411 60.2834 34.341 60.2856 34.3414L61.3406 34.5152C61.3549 34.5175 61.3695 34.5168 61.3834 34.5131C61.3972 34.5094 61.41 34.5029 61.4209 34.4938C61.8036 34.176 62.3078 33.7746 62.2004 33.1976C62.183 33.1028 62.0654 32.904 61.8475 32.601C61.829 32.5761 61.8012 32.5594 61.77 32.5546C61.2298 32.4778 60.6983 32.3437 60.1754 32.1522C58.9617 31.7075 57.8579 31.083 56.8639 30.279C57.1879 29.6285 57.5641 28.9121 58.3586 28.7802Z" fill="url(#paint9_linear_44_145)"/>
<path d="M82.1433 5.71842L82.288 5.86802C82.2404 6.31218 82.2348 6.71639 82.5615 7.04254C81.3285 6.74829 80.5038 6.56617 80.0874 6.49617C79.0904 6.32829 77.9364 6.31714 76.6256 6.46271C76.1414 6.51661 75.8492 6.56772 75.749 6.61603C75.7209 6.63001 75.6895 6.6358 75.6584 6.63276C75.4007 6.61232 75.0002 6.75727 74.5595 6.87063C73.892 7.04347 73.3599 7.27112 72.7175 7.45046C72.3581 7.55174 72.0136 7.71714 71.5757 7.90298C71.4021 7.97608 71.1338 8.07705 70.771 8.2059C70.3676 8.349 69.9792 8.55064 69.6058 8.81081C69.6024 8.81333 69.6001 8.81713 69.5994 8.82144C69.5987 8.82576 69.5996 8.83026 69.6021 8.83404C69.6047 8.83756 69.6085 8.83998 69.6128 8.84084C69.6172 8.8417 69.6216 8.84093 69.6254 8.83869L70.3592 8.40382C70.3601 8.40324 70.3611 8.40287 70.3622 8.40274C70.3632 8.40261 70.3643 8.40273 70.3654 8.40308C70.3664 8.40343 70.3674 8.40401 70.3683 8.40478C70.3692 8.40554 70.3699 8.40649 70.3704 8.40754L70.3807 8.42891C70.382 8.43166 70.3827 8.43464 70.3828 8.43766C70.383 8.44068 70.3825 8.44367 70.3814 8.44645C70.3804 8.44924 70.3788 8.45175 70.3767 8.45385C70.3747 8.45594 70.3722 8.45758 70.3695 8.45864C70.118 8.56581 69.9089 8.72564 69.7421 8.93811C67.6004 9.99555 65.7621 11.4247 64.104 13.1316C63.0789 14.1872 62.2228 15.3645 61.5357 16.6635C61.5339 16.6669 61.5308 16.6695 61.5272 16.6707C61.5235 16.6719 61.5196 16.6717 61.5161 16.67H61.5151C61.5117 16.6682 61.5091 16.6653 61.5077 16.6617C61.5063 16.6581 61.5063 16.6541 61.5077 16.6505C61.5606 16.5148 61.5945 16.4334 61.6094 16.4061C62.876 14.0255 64.5466 12.0039 66.6211 10.3412C67.2982 9.79794 68.0728 9.24661 68.9448 8.68723C70.3844 7.76236 71.9968 7.00227 73.7818 6.40696C76.4078 5.53041 79.1949 5.3009 82.1433 5.71842Z" fill="url(#paint10_linear_44_145)"/>
<path d="M84.7415 38.1309C84.9911 37.8682 85.1638 37.6499 85.2596 37.4758C85.6536 36.765 85.4053 35.8692 85.1345 35.1398C85.6866 34.7 86.2259 34.2465 86.7525 33.7794C86.8209 33.7187 86.9 33.6376 86.9896 33.536C87.116 33.3929 87.1922 33.308 87.2184 33.2814C87.9771 32.4971 88.5593 31.83 88.9651 31.2799C89.0759 31.1294 89.4011 30.662 89.9408 29.8777C90.0677 29.6928 90.1238 29.4893 90.2638 29.2923C90.2993 29.2428 90.3789 29.0969 90.5028 28.8547C91.6474 26.6178 92.318 24.1932 92.5147 21.5809C92.5627 20.9459 92.5564 20.1982 92.4961 19.3378C92.3504 17.2768 91.8183 15.2353 90.8137 13.4624C90.5305 12.9625 90.2993 12.5794 90.12 12.313C89.9725 12.0955 89.7061 11.7471 89.3208 11.2676L88.3032 10.0857C88.2952 10.0764 88.2883 10.0661 88.2827 10.055C87.776 9.06944 87.1897 8.12971 86.5238 7.23581C86.5072 7.2138 86.4858 7.1957 86.4612 7.18285C85.1461 6.50143 83.755 6.06316 82.288 5.86802L82.1433 5.71842C83.4603 5.92099 84.5697 6.20037 85.4716 6.55656C86.5147 6.96975 87.4938 7.48236 88.4087 8.0944C88.8905 8.41652 89.4105 8.81298 89.9688 9.28378C91.0686 10.2093 91.9894 11.3042 92.7313 12.5685C93.8585 14.487 94.5459 16.5232 94.7937 18.6771C95.0327 20.7498 94.9185 22.839 94.451 24.9446C94.1454 26.3229 93.7231 27.5878 93.1841 28.7394C92.0302 31.2024 90.4655 33.37 88.4899 35.242C87.3211 36.3509 86.0716 37.3138 84.7415 38.1309Z" fill="url(#paint11_linear_44_145)"/>
<path d="M82.288 5.86802C83.755 6.06316 85.1461 6.50143 86.4612 7.18285C86.4858 7.1957 86.5072 7.2138 86.5238 7.23581C87.1897 8.12971 87.776 9.06944 88.2827 10.055C88.2883 10.0661 88.2952 10.0764 88.3032 10.0857L89.3208 11.2676C87.9379 9.71648 86.2813 8.53515 84.3512 7.72364C83.7587 7.47462 83.1621 7.24758 82.5615 7.04254C82.2348 6.71639 82.2404 6.31218 82.288 5.86802Z" fill="url(#paint12_linear_44_145)"/>
<path d="M82.5615 7.04254C83.1621 7.24758 83.7587 7.47462 84.3512 7.72364C86.2813 8.53515 87.9379 9.71648 89.3208 11.2676C89.7061 11.7471 89.9725 12.0955 90.12 12.313C90.2993 12.5794 90.5305 12.9625 90.8137 13.4624C91.8183 15.2353 92.3504 17.2768 92.4961 19.3378C92.5564 20.1982 92.5627 20.9459 92.5147 21.5809C92.318 24.1932 91.6474 26.6178 90.5028 28.8547C90.3789 29.0969 90.2993 29.2428 90.2638 29.2923C90.1238 29.4893 90.0677 29.6928 89.9408 29.8777C89.4011 30.662 89.0759 31.1294 88.9651 31.2799C88.5593 31.83 87.9771 32.4971 87.2184 33.2814C87.1922 33.308 87.116 33.3929 86.9896 33.536C86.9 33.6376 86.8209 33.7187 86.7525 33.7794C86.2259 34.2465 85.6866 34.7 85.1345 35.1398C84.1897 35.8237 83.1995 36.4367 82.1638 36.9787C81.8221 37.158 81.4767 37.289 81.1415 37.4675C80.4441 37.8382 79.6318 38.1114 78.8859 38.3929C77.7179 38.7042 76.5537 39.075 75.3839 39.2952C74.2533 39.5089 73.3262 39.6836 72.0071 39.7505C71.0678 39.7635 70.4296 39.757 70.0922 39.731C69.4471 39.6817 68.8514 39.6204 68.4481 39.3249C68.0647 39.0443 67.8251 38.8885 67.7292 38.8575C67.1373 38.6643 66.5641 38.655 65.8564 38.55C65.6361 38.5178 65.501 38.4348 65.4512 38.3009C66.5759 38.4329 67.4084 38.5085 67.9486 38.5277C69.0783 38.5692 70.3673 38.5113 71.8157 38.3539C76.1495 37.8828 80.3955 36.2818 83.8798 33.6744C86.8981 31.4156 89.2574 28.2498 90.3282 24.6407C90.6357 23.6044 90.8327 22.6005 90.9192 21.6292C91.0182 20.5104 91.0191 19.1538 90.8426 17.9811C90.4816 15.585 89.5365 13.4791 88.0073 11.6635C86.9336 10.3886 85.5015 9.33488 84.0375 8.61289C80.7556 6.99546 77.3299 6.61046 73.7604 7.45789C72.3867 7.78373 71.0473 8.27714 69.7421 8.93811C69.9089 8.72564 70.118 8.56581 70.3695 8.45864C70.3722 8.45758 70.3747 8.45594 70.3767 8.45385C70.3788 8.45175 70.3804 8.44924 70.3814 8.44645C70.3825 8.44367 70.383 8.44068 70.3828 8.43766C70.3827 8.43464 70.382 8.43166 70.3807 8.42891L70.3704 8.40754C70.3699 8.40649 70.3692 8.40554 70.3683 8.40478C70.3674 8.40401 70.3664 8.40343 70.3654 8.40308C70.3643 8.40273 70.3632 8.40261 70.3622 8.40274C70.3611 8.40287 70.3601 8.40324 70.3592 8.40382L69.6254 8.83869C69.6216 8.84093 69.6172 8.8417 69.6128 8.84084C69.6085 8.83998 69.6047 8.83756 69.6021 8.83404C69.5996 8.83026 69.5987 8.82576 69.5994 8.82144C69.6001 8.81713 69.6024 8.81333 69.6058 8.81081C69.9792 8.55064 70.3676 8.349 70.771 8.2059C71.1338 8.07705 71.4021 7.97608 71.5757 7.90298C72.0136 7.71714 72.3581 7.55174 72.7175 7.45046C73.3599 7.27112 73.892 7.04347 74.5595 6.87063C75.0002 6.75727 75.4007 6.61232 75.6584 6.63276C75.6895 6.6358 75.7209 6.63001 75.749 6.61603C75.8492 6.56772 76.1414 6.51661 76.6256 6.46271C77.9364 6.31714 79.0904 6.32829 80.0874 6.49617C80.5038 6.56617 81.3285 6.74829 82.5615 7.04254Z" fill="url(#paint13_linear_44_145)"/>
<path d="M56.9778 35.2346C57.6407 35.8466 58.3639 36.3735 59.1475 36.8151C59.1568 36.8207 59.1666 36.8245 59.1765 36.8263L61.0661 37.2519L61.2948 37.3299C61.6925 37.592 61.9894 37.6598 62.4982 37.8345C62.9342 37.9841 63.2078 38.2405 63.528 38.5769C63.6942 38.7525 63.9192 38.8705 64.1311 38.9263C65.609 39.3119 66.9936 39.4792 68.6713 39.6808C69.6534 39.7991 70.7654 39.8224 72.0071 39.7505C73.3262 39.6836 74.2533 39.5089 75.3839 39.2952C76.5537 39.075 77.7179 38.7042 78.8859 38.3929L77.7189 38.852C77.6812 38.8663 77.6504 38.8949 77.633 38.9319L76.4809 41.3041C76.4777 41.3109 76.473 41.3168 76.4672 41.3216C76.4614 41.3265 76.4546 41.33 76.4473 41.332C75.8647 41.5017 75.2429 41.6098 74.5819 41.6563C74.3958 41.6693 74.0921 41.744 73.6707 41.8802C71.0423 42.0971 68.5088 41.9081 66.0702 41.3134C62.8754 40.5335 60.0684 39.0607 57.6491 36.8951C56.746 36.0867 55.9847 35.2984 55.3655 34.5302C55.0051 34.0824 54.5657 33.5224 54.0472 32.8502C54.0414 32.8428 54.0388 32.8333 54.0398 32.8238C54.0409 32.8143 54.0455 32.8055 54.0528 32.7991L54.0537 32.7982C54.063 32.7902 54.075 32.786 54.0872 32.7865C54.0994 32.787 54.1108 32.7922 54.1191 32.801C54.9898 33.7054 55.9427 34.5166 56.9778 35.2346Z" fill="url(#paint14_linear_44_145)"/>
<path d="M85.1345 35.1398C85.4053 35.8692 85.6536 36.765 85.2596 37.4758C85.1638 37.6499 84.9911 37.8682 84.7415 38.1309C83.849 38.6859 83.1239 39.1032 82.5662 39.3825C81.6873 39.8236 80.6389 40.2541 79.4208 40.6741C78.1823 41.1009 76.9779 41.4135 75.8078 41.6117C75.2395 41.7083 74.5272 41.7979 73.6707 41.8802C74.0921 41.744 74.3958 41.6693 74.5819 41.6563C75.2429 41.6098 75.8647 41.5017 76.4473 41.332C76.4546 41.33 76.4614 41.3265 76.4672 41.3216C76.473 41.3168 76.4777 41.3109 76.4809 41.3041L77.633 38.9319C77.6504 38.8949 77.6812 38.8663 77.7189 38.852L78.8859 38.3929C79.6318 38.1114 80.4441 37.8382 81.1415 37.4675C81.4767 37.289 81.8221 37.158 82.1638 36.9787C83.1995 36.4367 84.1897 35.8237 85.1345 35.1398Z" fill="url(#paint15_linear_44_145)"/>
<path d="M61.0661 37.2519L59.1765 36.8263C59.1666 36.8245 59.1568 36.8207 59.1475 36.8151C58.3639 36.3735 57.6407 35.8466 56.9778 35.2346C57.3148 35.4529 57.6463 35.6871 57.988 35.872C58.9788 36.4091 60.0049 36.869 61.0661 37.2519Z" fill="url(#paint16_linear_44_145)"/>
<path d="M61.2948 37.3299C62.6498 37.7778 64.0353 38.1015 65.4512 38.3009C65.501 38.4348 65.6361 38.5178 65.8564 38.55C66.5641 38.655 67.1373 38.6643 67.7292 38.8575C67.8251 38.8885 68.0647 39.0443 68.4481 39.3249C68.8514 39.6204 69.4471 39.6817 70.0922 39.731C70.4296 39.757 71.0678 39.7635 72.0071 39.7505C70.7654 39.8224 69.6534 39.7991 68.6713 39.6808C66.9936 39.4792 65.609 39.3119 64.1311 38.9263C63.9192 38.8705 63.6942 38.7525 63.528 38.5769C63.2078 38.2405 62.9342 37.9841 62.4982 37.8345C61.9894 37.6598 61.6925 37.592 61.2948 37.3299Z" fill="url(#paint17_linear_44_145)"/>
</g>
<defs>
<linearGradient id="paint0_linear_44_145" x1="65" y1="18" x2="56.6874" y2="33.0655" gradientUnits="userSpaceOnUse">
<stop stop-color="#F65924"/>
<stop offset="1" stop-color="#FDBC5B"/>
</linearGradient>
<linearGradient id="paint1_linear_44_145" x1="65" y1="18" x2="56.6874" y2="33.0655" gradientUnits="userSpaceOnUse">
<stop stop-color="#F65924"/>
<stop offset="1" stop-color="#FDBC5B"/>
</linearGradient>
<linearGradient id="paint2_linear_44_145" x1="65" y1="18" x2="56.6874" y2="33.0655" gradientUnits="userSpaceOnUse">
<stop stop-color="#F65924"/>
<stop offset="1" stop-color="#FDBC5B"/>
</linearGradient>
<linearGradient id="paint3_linear_44_145" x1="65" y1="18" x2="56.6874" y2="33.0655" gradientUnits="userSpaceOnUse">
<stop stop-color="#F65924"/>
<stop offset="1" stop-color="#FDBC5B"/>
</linearGradient>
<linearGradient id="paint4_linear_44_145" x1="65" y1="18" x2="56.6874" y2="33.0655" gradientUnits="userSpaceOnUse">
<stop stop-color="#F65924"/>
<stop offset="1" stop-color="#FDBC5B"/>
</linearGradient>
<linearGradient id="paint5_linear_44_145" x1="65" y1="18" x2="56.6874" y2="33.0655" gradientUnits="userSpaceOnUse">
<stop stop-color="#F65924"/>
<stop offset="1" stop-color="#FDBC5B"/>
</linearGradient>
<linearGradient id="paint6_linear_44_145" x1="65" y1="18" x2="56.6874" y2="33.0655" gradientUnits="userSpaceOnUse">
<stop stop-color="#F65924"/>
<stop offset="1" stop-color="#FDBC5B"/>
</linearGradient>
<linearGradient id="paint7_linear_44_145" x1="65" y1="18" x2="56.6874" y2="33.0655" gradientUnits="userSpaceOnUse">
<stop stop-color="#F65924"/>
<stop offset="1" stop-color="#FDBC5B"/>
</linearGradient>
<linearGradient id="paint8_linear_44_145" x1="65" y1="18" x2="56.6874" y2="33.0655" gradientUnits="userSpaceOnUse">
<stop stop-color="#F65924"/>
<stop offset="1" stop-color="#FDBC5B"/>
</linearGradient>
<linearGradient id="paint9_linear_44_145" x1="65" y1="18" x2="56.6874" y2="33.0655" gradientUnits="userSpaceOnUse">
<stop stop-color="#F65924"/>
<stop offset="1" stop-color="#FDBC5B"/>
</linearGradient>
<linearGradient id="paint10_linear_44_145" x1="84.5" y1="24" x2="95.2684" y2="29.3288" gradientUnits="userSpaceOnUse">
<stop stop-color="#F65924"/>
<stop offset="1" stop-color="#FDBC5B"/>
</linearGradient>
<linearGradient id="paint11_linear_44_145" x1="84.5" y1="24" x2="95.2684" y2="29.3288" gradientUnits="userSpaceOnUse">
<stop stop-color="#F65924"/>
<stop offset="1" stop-color="#FDBC5B"/>
</linearGradient>
<linearGradient id="paint12_linear_44_145" x1="84.5" y1="24" x2="95.2684" y2="29.3288" gradientUnits="userSpaceOnUse">
<stop stop-color="#F65924"/>
<stop offset="1" stop-color="#FDBC5B"/>
</linearGradient>
<linearGradient id="paint13_linear_44_145" x1="84.5" y1="24" x2="95.2684" y2="29.3288" gradientUnits="userSpaceOnUse">
<stop stop-color="#F65924"/>
<stop offset="1" stop-color="#FDBC5B"/>
</linearGradient>
<linearGradient id="paint14_linear_44_145" x1="84.5" y1="24" x2="95.2684" y2="29.3288" gradientUnits="userSpaceOnUse">
<stop stop-color="#F65924"/>
<stop offset="1" stop-color="#FDBC5B"/>
</linearGradient>
<linearGradient id="paint15_linear_44_145" x1="84.5" y1="24" x2="95.2684" y2="29.3288" gradientUnits="userSpaceOnUse">
<stop stop-color="#F65924"/>
<stop offset="1" stop-color="#FDBC5B"/>
</linearGradient>
<linearGradient id="paint16_linear_44_145" x1="84.5" y1="24" x2="95.2684" y2="29.3288" gradientUnits="userSpaceOnUse">
<stop stop-color="#F65924"/>
<stop offset="1" stop-color="#FDBC5B"/>
</linearGradient>
<linearGradient id="paint17_linear_44_145" x1="84.5" y1="24" x2="95.2684" y2="29.3288" gradientUnits="userSpaceOnUse">
<stop stop-color="#F65924"/>
<stop offset="1" stop-color="#FDBC5B"/>
</linearGradient>
<clipPath id="clip0_44_145">
<rect width="45" height="42" fill="white" transform="translate(50)"/>
</clipPath>
</defs>
</svg>